<svg xmlns="http://www.w3.org/2000/svg" viewBox="0 0 32 32" fill="none">
  <circle cx="16" cy="16" r="16" fill="#2775CA"/>
  <path d="M20.5 18.2c0-2.1-1.3-2.8-3.8-3.1-1.8-.3-2.2-.7-2.2-1.5s.7-1.3 1.8-1.3c1 0 1.7.4 2 1.2.1.1.2.2.3.2h.7c.2 0 .3-.1.3-.3-.3-1.2-1.2-2-2.5-2.2v-1.3c0-.2-.1-.3-.3-.3h-.6c-.2 0-.3.1-.3.3v1.3c-1.7.2-2.8 1.3-2.8 2.6 0 2 1.2 2.7 3.8 3 1.7.3 2.2.8 2.2 1.6s-.8 1.5-1.9 1.5c-1.5 0-2-.6-2.2-1.4 0-.1-.2-.2-.3-.2h-.8c-.2 0-.3.1-.3.3.3 1.4 1.2 2.3 2.8 2.5v1.3c0 .2.1.3.3.3h.6c.2 0 .3-.1.3-.3v-1.3c1.8-.2 2.9-1.3 2.9-2.7z" fill="white"/>
  <path d="M18.6 23c-3.5 1.3-7.4-.3-8.7-3.8S9.6 11.8 13.1 10.5c.2-.1.3-.3.3-.5s-.1-.3-.3-.3h-.1c-4.2 1.5-6.4 6.1-4.9 10.3s6.1 6.4 10.3 4.9c.2-.1.3-.3.2-.5 0-.2-.2-.4-.4-.4h.4zm-5.2-16c3.5-1.3 7.4.3 8.7 3.8s-.3 7.4-3.8 8.7c-.2.1-.3.3-.3.5s.1.3.3.3h.1c4.2-1.5 6.4-6.1 4.9-10.3S17.2 3.6 13 5.1c-.2.1-.3.3-.2.5 0 .2.2.4.4.4h.2z" fill="white"/>
</svg>
